<svg width="32" height="32" viewBox="0 0 32 32" xmlns="http://www.w3.org/2000/svg">
  <!-- Background circle for better visibility -->
  <circle cx="16" cy="16" r="16" fill="#1e293b"/>
  
  <!-- Light rays -->
  <g stroke="#fbbf24" stroke-width="1.5" stroke-linecap="round">
    <line x1="16" y1="4" x2="16" y2="6"/>
    <line x1="23.5" y1="8.5" x2="22.1" y2="9.9"/>
    <line x1="27" y1="16" x2="25" y2="16"/>
    <line x1="23.5" y1="23.5" x2="22.1" y2="22.1"/>
    <line x1="8.5" y1="8.5" x2="9.9" y2="9.9"/>
    <line x1="5" y1="16" x2="7" y2="16"/>
    <line x1="8.5" y1="23.5" x2="9.9" y2="22.1"/>
  </g>
  
  <!-- Lightbulb body -->
  <path d="M16 8c-3.3 0-6 2.7-6 6 0 2 1 3.8 2.5 5v1.5c0 0.8 0.7 1.5 1.5 1.5h4c0.8 0 1.5-0.7 1.5-1.5V19c1.5-1.2 2.5-3 2.5-5 0-3.3-2.7-6-6-6z" fill="#f8fafc" stroke="#1e293b" stroke-width="1.5"/>
  
  <!-- Highlight on bulb -->
  <ellipse cx="13.5" cy="12" rx="1" ry="2" fill="#e2e8f0" opacity="0.8"/>
  
  <!-- XH initials -->
  <text x="16" y="14" text-anchor="middle" dominant-baseline="central" font-family="Arial, sans-serif" font-size="6" font-weight="bold" fill="#1e293b">XH</text>
  
  <!-- Base threads -->
  <rect x="13" y="22" width="6" height="1" fill="#64748b" rx="0.5"/>
  <rect x="13" y="24" width="6" height="1" fill="#64748b" rx="0.5"/>
  
  <!-- Bottom cap -->
  <rect x="13.5" y="25.5" width="5" height="2" fill="#475569" rx="1"/>
</svg>